<svg xmlns="http://www.w3.org/2000/svg" xmlns:xlink="http://www.w3.org/1999/xlink" width="100" zoomAndPan="magnify" viewBox="0 0 1440 809.999993" height="100" preserveAspectRatio="xMidYMid meet" version="1.0"><defs><clipPath id="1391e387a7"><path d="M 609 311 L 835.5 311 L 835.5 503.25 L 609 503.25 Z M 609 311 " clip-rule="nonzero"/></clipPath><clipPath id="629bacb3fe"><path d="M 604.5 306.75 L 831 306.75 L 831 499 L 604.5 499 Z M 604.5 306.75 " clip-rule="nonzero"/></clipPath></defs><g clip-path="url(#1391e387a7)"><path fill="#1d1d1b" d="M 722.308594 503.25 C 714.53125 503.25 707.046875 500.8125 700.789062 496.316406 L 636.839844 496.316406 C 621.554688 496.316406 609.121094 483.871094 609.121094 468.574219 L 609.121094 357.609375 C 609.121094 346.277344 616.078125 336.210938 626.257812 331.980469 L 630.09375 326.183594 C 631.558594 323.980469 633.5625 322.207031 635.898438 321.035156 L 636.367188 320.800781 C 641.964844 317.988281 655.117188 311.375 678.421875 311.375 C 695.207031 311.375 710.234375 313.996094 722.308594 318.992188 C 734.382812 313.996094 749.414062 311.375 766.199219 311.375 C 784.144531 311.375 797.675781 313.777344 807.5625 318.726562 C 810.007812 319.949219 812.074219 321.816406 813.535156 324.132812 L 818.554688 332.0625 C 828.625 336.34375 835.5 346.363281 835.5 357.609375 L 835.5 468.574219 C 835.5 483.871094 823.066406 496.316406 807.78125 496.316406 L 743.847656 496.316406 C 737.601562 500.816406 730.113281 503.25 722.308594 503.25 Z M 722.308594 503.25 " fill-opacity="0.35" fill-rule="nonzero"/></g><g clip-path="url(#629bacb3fe)"><path fill="#f2f2f2" d="M 717.691406 498.625 C 709.914062 498.625 702.429688 496.191406 696.167969 491.691406 L 632.21875 491.691406 C 616.933594 491.691406 604.5 479.25 604.5 463.949219 L 604.5 352.984375 C 604.5 341.65625 611.457031 331.585938 621.636719 327.355469 L 625.476562 321.558594 C 626.9375 319.355469 628.941406 317.582031 631.28125 316.414062 L 631.75 316.175781 C 637.347656 313.367188 650.496094 306.75 673.800781 306.75 C 690.585938 306.75 705.617188 309.371094 717.691406 314.367188 C 729.765625 309.371094 744.792969 306.75 761.578125 306.75 C 779.527344 306.75 793.054688 309.152344 802.941406 314.101562 C 805.390625 315.324219 807.453125 317.195312 808.917969 319.507812 L 813.933594 327.441406 C 824.003906 331.71875 830.878906 341.738281 830.878906 352.984375 L 830.878906 463.949219 C 830.878906 479.246094 818.445312 491.691406 803.160156 491.691406 L 739.226562 491.691406 C 732.980469 496.191406 725.492188 498.625 717.691406 498.625 Z M 717.691406 498.625 " fill-opacity="1" fill-rule="nonzero"/></g><path fill="#f4665c" d="M 804.316406 340.328125 L 796.230469 327.542969 C 791.609375 325.234375 781.996094 321.777344 761.578125 321.777344 C 742.839844 321.777344 728.085938 325.234375 717.691406 331.011719 C 707.296875 325.234375 692.539062 321.777344 673.800781 321.777344 C 653.382812 321.777344 643.769531 325.234375 639.148438 327.542969 L 631.066406 340.328125 C 624.597656 340.914062 619.515625 346.363281 619.515625 352.984375 L 619.515625 463.949219 C 619.515625 470.960938 625.214844 476.664062 632.21875 476.664062 L 701.703125 476.664062 C 705.710938 480.921875 711.382812 483.601562 717.691406 483.601562 C 723.996094 483.601562 729.667969 480.921875 733.675781 476.664062 L 803.160156 476.664062 C 810.167969 476.664062 815.863281 470.960938 815.863281 463.949219 L 815.863281 352.984375 C 815.863281 346.363281 810.78125 340.914062 804.316406 340.328125 Z M 804.316406 340.328125 " fill-opacity="1" fill-rule="nonzero"/><path fill="#b73b3b" d="M 726.929688 461.636719 C 726.929688 462.246094 726.871094 462.847656 726.753906 463.441406 C 726.632812 464.039062 726.457031 464.617188 726.226562 465.175781 C 725.996094 465.738281 725.710938 466.269531 725.371094 466.777344 C 725.035156 467.28125 724.652344 467.746094 724.222656 468.175781 C 723.792969 468.605469 723.328125 468.988281 722.824219 469.328125 C 722.320312 469.664062 721.785156 469.949219 721.226562 470.179688 C 720.664062 470.414062 720.085938 470.589844 719.492188 470.707031 C 718.898438 470.824219 718.296875 470.886719 717.691406 470.886719 C 717.082031 470.886719 716.480469 470.824219 715.886719 470.707031 C 715.292969 470.589844 714.714844 470.414062 714.152344 470.179688 C 713.59375 469.949219 713.0625 469.664062 712.554688 469.328125 C 712.050781 468.988281 711.585938 468.605469 711.15625 468.175781 C 710.726562 467.746094 710.34375 467.28125 710.007812 466.777344 C 709.671875 466.269531 709.386719 465.738281 709.152344 465.175781 C 708.921875 464.617188 708.746094 464.039062 708.628906 463.441406 C 708.507812 462.847656 708.449219 462.246094 708.449219 461.636719 C 708.449219 461.03125 708.507812 460.429688 708.628906 459.835938 C 708.746094 459.238281 708.921875 458.660156 709.152344 458.097656 C 709.386719 457.539062 709.671875 457.003906 710.007812 456.5 C 710.34375 455.996094 710.726562 455.527344 711.15625 455.097656 C 711.585938 454.671875 712.050781 454.285156 712.554688 453.949219 C 713.0625 453.613281 713.59375 453.328125 714.152344 453.09375 C 714.714844 452.863281 715.292969 452.6875 715.886719 452.570312 C 716.480469 452.449219 717.082031 452.390625 717.691406 452.390625 C 718.296875 452.390625 718.898438 452.449219 719.492188 452.570312 C 720.085938 452.6875 720.664062 452.863281 721.226562 453.09375 C 721.785156 453.328125 722.320312 453.613281 722.824219 453.949219 C 723.328125 454.285156 723.792969 454.671875 724.222656 455.097656 C 724.652344 455.527344 725.035156 455.996094 725.371094 456.5 C 725.710938 457.003906 725.996094 457.539062 726.226562 458.097656 C 726.457031 458.660156 726.632812 459.238281 726.753906 459.835938 C 726.871094 460.429688 726.929688 461.03125 726.929688 461.636719 Z M 726.929688 461.636719 " fill-opacity="1" fill-rule="nonzero"/><path fill="#70bfff" d="M 796.230469 327.542969 C 791.609375 325.234375 781.996094 321.777344 761.578125 321.777344 C 742.839844 321.777344 728.085938 325.234375 717.691406 331.011719 C 707.296875 325.234375 692.539062 321.777344 673.800781 321.777344 C 653.382812 321.777344 643.769531 325.234375 639.148438 327.542969 L 633.375 336.675781 L 633.375 461.636719 L 802.003906 461.636719 L 802.003906 336.675781 Z M 796.230469 327.542969 " fill-opacity="1" fill-rule="nonzero"/><path fill="#40396e" d="M 641.460938 450.066406 L 793.921875 450.066406 L 802.003906 461.636719 L 633.375 461.636719 Z M 641.460938 450.066406 " fill-opacity="0.35" fill-rule="nonzero"/><path fill="#bde2ff" d="M 717.691406 331.011719 C 728.085938 325.234375 743.101562 321.765625 761.578125 321.765625 C 777.75 321.765625 785.363281 323.0625 793.921875 326.375 L 793.921875 450.054688 L 766.199219 450.054688 C 743.101562 450.054688 726.929688 455.835938 717.691406 461.625 Z M 717.691406 331.011719 " fill-opacity="1" fill-rule="nonzero"/><path fill="#d9eeff" d="M 717.691406 331.011719 C 707.296875 325.234375 692.28125 321.777344 673.800781 321.777344 C 657.628906 321.777344 650.019531 323.074219 641.460938 326.386719 L 641.460938 450.066406 L 669.179688 450.066406 C 692.28125 450.066406 708.449219 455.847656 717.691406 461.636719 Z M 717.691406 331.011719 " fill-opacity="1" fill-rule="nonzero"/><path fill="#70bfff" d="M 704.984375 352.972656 L 670.335938 352.972656 C 668.421875 352.972656 666.871094 351.421875 666.871094 349.507812 C 666.871094 347.59375 668.421875 346.039062 670.335938 346.039062 L 704.984375 346.039062 C 706.898438 346.039062 708.449219 347.59375 708.449219 349.507812 C 708.449219 351.421875 706.898438 352.972656 704.984375 352.972656 Z M 704.984375 352.972656 " fill-opacity="1" fill-rule="nonzero"/><path fill="#70bfff" d="M 656.476562 352.972656 C 654.5625 352.972656 653.011719 351.421875 653.011719 349.507812 C 653.011719 347.59375 654.5625 346.039062 656.476562 346.039062 C 658.386719 346.039062 659.941406 347.59375 659.941406 349.507812 C 659.941406 351.421875 658.386719 352.972656 656.476562 352.972656 Z M 656.476562 352.972656 " fill-opacity="1" fill-rule="nonzero"/><path fill="#70bfff" d="M 695.746094 369.15625 L 670.335938 369.15625 C 668.421875 369.15625 666.871094 367.601562 666.871094 365.6875 C 666.871094 363.773438 668.421875 362.222656 670.335938 362.222656 L 695.746094 362.222656 C 697.65625 362.222656 699.210938 363.773438 699.210938 365.6875 C 699.210938 367.601562 697.65625 369.15625 695.746094 369.15625 Z M 695.746094 369.15625 " fill-opacity="1" fill-rule="nonzero"/><path fill="#70bfff" d="M 656.476562 369.15625 C 654.5625 369.15625 653.011719 367.601562 653.011719 365.6875 C 653.011719 363.773438 654.5625 362.222656 656.476562 362.222656 C 658.386719 362.222656 659.941406 363.773438 659.941406 365.6875 C 659.941406 367.601562 658.386719 369.15625 656.476562 369.15625 Z M 656.476562 369.15625 " fill-opacity="1" fill-rule="nonzero"/><path fill="#70bfff" d="M 695.746094 385.339844 L 670.335938 385.339844 C 668.421875 385.339844 666.871094 383.785156 666.871094 381.871094 C 666.871094 379.957031 668.421875 378.402344 670.335938 378.402344 L 695.746094 378.402344 C 697.65625 378.402344 699.210938 379.957031 699.210938 381.871094 C 699.210938 383.785156 697.65625 385.339844 695.746094 385.339844 Z M 695.746094 385.339844 " fill-opacity="1" fill-rule="nonzero"/><path fill="#70bfff" d="M 656.476562 385.339844 C 654.5625 385.339844 653.011719 383.785156 653.011719 381.871094 C 653.011719 379.957031 654.5625 378.402344 656.476562 378.402344 C 658.386719 378.402344 659.941406 379.957031 659.941406 381.871094 C 659.941406 383.785156 658.386719 385.339844 656.476562 385.339844 Z M 656.476562 385.339844 " fill-opacity="1" fill-rule="nonzero"/><path fill="#70bfff" d="M 704.984375 417.703125 L 691.125 417.703125 C 689.210938 417.703125 687.660156 416.148438 687.660156 414.234375 C 687.660156 412.320312 689.210938 410.769531 691.125 410.769531 L 704.984375 410.769531 C 706.898438 410.769531 708.449219 412.320312 708.449219 414.234375 C 708.449219 416.148438 706.898438 417.703125 704.984375 417.703125 Z M 704.984375 417.703125 " fill-opacity="1" fill-rule="nonzero"/><path fill="#70bfff" d="M 704.984375 433.886719 L 679.574219 433.886719 C 677.664062 433.886719 676.109375 432.332031 676.109375 430.417969 C 676.109375 428.503906 677.664062 426.949219 679.574219 426.949219 L 704.984375 426.949219 C 706.898438 426.949219 708.449219 428.503906 708.449219 430.417969 C 708.449219 432.332031 706.898438 433.886719 704.984375 433.886719 Z M 704.984375 433.886719 " fill-opacity="1" fill-rule="nonzero"/><path fill="#70bfff" d="M 656.476562 433.886719 C 654.5625 433.886719 653.011719 432.332031 653.011719 430.417969 C 653.011719 428.503906 654.5625 426.949219 656.476562 426.949219 C 658.386719 426.949219 659.941406 428.503906 659.941406 430.417969 C 659.941406 432.332031 658.386719 433.886719 656.476562 433.886719 Z M 656.476562 433.886719 " fill-opacity="1" fill-rule="nonzero"/><path fill="#96c362" d="M 757.746094 427.445312 C 756.382812 427.445312 755.257812 426.988281 754.367188 426.070312 C 753.476562 425.15625 753.03125 424.039062 753.03125 422.730469 L 753.03125 418.09375 C 749.996094 417.882812 747.3125 417.398438 744.984375 416.640625 C 742.652344 415.882812 740.675781 415.082031 739.054688 414.242188 C 737.589844 413.507812 736.671875 412.472656 736.304688 411.136719 C 735.941406 409.800781 736.003906 408.519531 736.503906 407.285156 C 737 406.054688 737.835938 405.164062 739.015625 404.613281 C 740.195312 404.0625 741.59375 404.179688 743.21875 404.96875 C 744.472656 405.648438 746.226562 406.34375 748.480469 407.046875 C 750.730469 407.757812 753.480469 408.109375 756.722656 408.109375 C 760.335938 408.109375 762.902344 407.535156 764.421875 406.378906 C 765.9375 405.230469 766.699219 403.789062 766.699219 402.058594 C 766.699219 400.644531 766.175781 399.464844 765.128906 398.523438 C 764.078125 397.578125 762.195312 396.820312 759.472656 396.242188 L 750.832031 394.359375 C 741.304688 392.265625 736.539062 387.179688 736.539062 379.109375 C 736.539062 374.707031 738.03125 370.988281 741.015625 367.945312 C 744 364.910156 748.007812 362.996094 753.03125 362.210938 L 753.03125 357.257812 C 753.03125 355.953125 753.476562 354.835938 754.367188 353.917969 C 755.257812 353.003906 756.382812 352.542969 757.746094 352.542969 C 759.054688 352.542969 760.152344 353 761.042969 353.917969 C 761.9375 354.835938 762.378906 355.953125 762.378906 357.257812 L 762.378906 361.972656 C 764.316406 362.238281 766.316406 362.707031 768.390625 363.386719 C 770.457031 364.070312 772.277344 364.960938 773.847656 366.0625 C 775.101562 366.847656 775.875 367.855469 776.164062 369.085938 C 776.453125 370.320312 776.332031 371.484375 775.8125 372.585938 C 775.285156 373.6875 774.433594 374.460938 773.257812 374.90625 C 772.082031 375.347656 770.652344 375.152344 768.980469 374.316406 C 767.566406 373.632812 766.019531 373.058594 764.34375 372.585938 C 762.664062 372.113281 760.601562 371.878906 758.136719 371.878906 C 755.101562 371.878906 752.71875 372.503906 750.992188 373.761719 C 749.261719 375.019531 748.398438 376.644531 748.398438 378.632812 C 748.398438 380.050781 748.910156 381.214844 749.929688 382.132812 C 750.949219 383.050781 752.746094 383.796875 755.3125 384.375 L 764.027344 386.261719 C 769 387.359375 772.675781 389.15625 775.0625 391.644531 C 777.441406 394.132812 778.632812 397.316406 778.632812 401.195312 C 778.632812 405.648438 777.132812 409.316406 774.117188 412.199219 C 771.105469 415.082031 767.191406 416.941406 762.375 417.78125 L 762.375 422.730469 C 762.375 424.039062 761.933594 425.15625 761.042969 426.070312 C 760.148438 426.988281 759.054688 427.445312 757.746094 427.445312 Z M 757.746094 427.445312 " fill-opacity="1" fill-rule="nonzero"/><path fill="#40396e" d="M 717.691406 487.066406 C 711.242188 487.066406 704.976562 484.558594 700.269531 480.132812 L 632.21875 480.132812 C 623.304688 480.132812 616.050781 472.871094 616.050781 463.949219 L 616.050781 352.984375 C 616.050781 345.285156 621.625 338.632812 629.027344 337.125 L 635.105469 327.941406 C 635.441406 327.433594 635.90625 327.023438 636.445312 326.75 L 636.914062 326.515625 C 641.796875 324.0625 653.234375 318.308594 673.800781 318.308594 C 691.34375 318.308594 706.464844 321.335938 717.691406 327.082031 C 728.917969 321.335938 744.035156 318.308594 761.578125 318.308594 C 777.46875 318.308594 789.644531 320.375 797.78125 324.441406 C 798.34375 324.722656 798.820312 325.152344 799.160156 325.6875 L 806.398438 337.132812 C 813.777344 338.660156 819.328125 345.304688 819.328125 352.984375 L 819.328125 463.949219 C 819.328125 472.871094 812.074219 480.132812 803.160156 480.132812 L 735.113281 480.132812 C 730.371094 484.617188 724.242188 487.066406 717.691406 487.066406 Z M 640.375 332.539062 L 633.953125 342.242188 C 633.371094 343.121094 632.425781 343.6875 631.378906 343.78125 C 626.667969 344.210938 622.980469 348.253906 622.980469 352.984375 L 622.980469 463.949219 C 622.980469 469.050781 627.125 473.195312 632.21875 473.195312 L 701.703125 473.195312 C 702.65625 473.195312 703.570312 473.59375 704.226562 474.289062 C 707.773438 478.054688 712.554688 480.132812 717.691406 480.132812 C 722.824219 480.132812 727.605469 478.054688 731.15625 474.289062 C 731.808594 473.59375 732.722656 473.195312 733.675781 473.195312 L 803.160156 473.195312 C 808.253906 473.195312 812.398438 469.050781 812.398438 463.949219 L 812.398438 352.984375 C 812.398438 348.25 808.710938 344.207031 804 343.78125 C 802.929688 343.683594 801.960938 343.09375 801.386719 342.183594 L 793.832031 330.238281 C 786.652344 326.925781 775.8125 325.242188 761.578125 325.242188 C 744.316406 325.242188 729.726562 328.285156 719.375 334.042969 C 718.328125 334.625 717.054688 334.625 716.007812 334.042969 C 705.65625 328.285156 691.0625 325.242188 673.800781 325.242188 C 655.324219 325.242188 645.324219 330.058594 640.375 332.539062 Z M 640.375 332.539062 " fill-opacity="1" fill-rule="nonzero"/></svg>